<svg id="layer" xmlns="http://www.w3.org/2000/svg" viewBox="0 0 422.3 238.26"><defs><style>.cls-1{fill:#e4010b;}.cls-1,.cls-2,.cls-3{stroke:#fcfcfc;stroke-miterlimit:10;}.cls-3{fill:#4569db;}</style></defs><title>logo</title><path class="cls-1" d="M301,147.15h-5.22L294,143h-6.53l-1.83,4.12h-5.1a10.16,10.16,0,0,1,.38-1.41q4.28-9.48,8.59-19c.17-.38.29-.89.6-1.07a1.5,1.5,0,0,1,1.21,0c.26.11.36.57.5.89q4.41,9.66,8.79,19.33C300.71,146.21,300.81,146.53,301,147.15ZM292.41,139c-.61-1.49-1.07-2.6-1.53-3.71h-.45c-.44,1.18-.87,2.35-1.37,3.71Z" transform="translate(-45.01 -124.24)"/><path class="cls-1" d="M226,330.15h-5.22L219,326h-6.53l-1.83,4.12h-5.1a10.16,10.16,0,0,1,.38-1.41q4.27-9.48,8.59-19c.17-.38.29-.89.6-1.07a1.5,1.5,0,0,1,1.21,0c.26.11.36.57.5.89q4.41,9.66,8.79,19.33C225.71,329.21,225.81,329.53,226,330.15ZM217.41,322c-.61-1.49-1.07-2.6-1.53-3.71h-.45c-.44,1.18-.87,2.35-1.37,3.71Z" transform="translate(-45.01 -124.24)"/><path class="cls-2" d="M146.44,175.11h12.23q7.25,55.92,14.49,111.81H162.71c-.81-6.13-1.61-12.22-2.43-18.44H143.76c-.81,6.12-1.63,12.26-2.46,18.47H131.13C136.23,249.66,141.32,212.51,146.44,175.11ZM159,258.58l-6.63-54.46H152c-2.32,18.11-4.63,36.22-7,54.47Z" transform="translate(-45.01 -124.24)"/><path class="cls-2" d="M302.37,175.12h12.24c4.83,37.29,9.65,74.49,14.49,111.82H318.65c-.81-6.12-1.62-12.26-2.44-18.48H299.69c-.81,6.13-1.62,12.21-2.46,18.58-3.37,0-6.69,0-10.18,0C292.18,249.61,297.27,212.39,302.37,175.12Zm5.91,28.66-.28,0q-3.51,27.34-7,54.67c2.39.43,12.23.35,13.91-.14Q311.6,231.06,308.28,203.78Z" transform="translate(-45.01 -124.24)"/><path class="cls-2" d="M466.33,212.81h-9.65v-2.33c0-5.75.06-11.51,0-17.27a19.88,19.88,0,0,0-.83-4.94,4.94,4.94,0,0,0-4.79-3.75,14.14,14.14,0,0,0-2.52,0,5.91,5.91,0,0,0-5.66,5.28,9.55,9.55,0,0,0-.16,1.68c0,6.67.05,13.34.05,20a8.82,8.82,0,0,0,2.22,6q3.87,4.42,7.9,8.74c2.77,3,5.64,5.87,8.45,8.81a20,20,0,0,1,5.43,14c.12,7.72.07,15.44,0,23.16a20.18,20.18,0,0,1-1.46,7.18,12.58,12.58,0,0,1-9.16,8.2,26.74,26.74,0,0,1-13.53-.06,13,13,0,0,1-9-8.14,23.11,23.11,0,0,1-1.6-8.43c-.09-7.93,0-15.86,0-23.8a9.57,9.57,0,0,1,.13-1.13h9.84c0,.78.1,1.53.1,2.28,0,6.74-.07,13.48.06,20.21a22,22,0,0,0,1.15,5.93,4.67,4.67,0,0,0,4.38,3.4,16.53,16.53,0,0,0,4.16-.15,5,5,0,0,0,4-3.67,14.49,14.49,0,0,0,.6-3.92c.07-6,0-12.08,0-18.11a13.65,13.65,0,0,0-3.69-10c-2.64-2.82-5.33-5.59-8-8.41q-4.67-5-9.25-10.08a12.52,12.52,0,0,1-3.25-8.46c-.11-7.85-.25-15.71-.24-23.57a26.8,26.8,0,0,1,.78-6c1.42-6,5.18-9.82,11.29-11.12a26.77,26.77,0,0,1,12.3.3,11.72,11.72,0,0,1,8.45,7.51,24.4,24.4,0,0,1,1.59,8.65c.05,7,0,14,0,21.05A9.17,9.17,0,0,1,466.33,212.81Z" transform="translate(-45.01 -124.24)"/><path class="cls-2" d="M79.67,212.82H70.11v-2.3c0-5.54.07-11.09,0-16.63a25.13,25.13,0,0,0-.9-5.77,4.77,4.77,0,0,0-4.47-3.58,14.83,14.83,0,0,0-2.31-.07,6,6,0,0,0-6.14,5.26,14,14,0,0,0-.2,2.51c0,5.9.06,11.79,0,17.69a11.63,11.63,0,0,0,3,8.47q3.84,4.18,7.72,8.33c2.69,2.86,5.43,5.68,8.11,8.55A18.87,18.87,0,0,1,80,247.85c.16,4.21.13,8.42.15,12.63,0,3.65,0,7.3,0,10.95a21.63,21.63,0,0,1-1.85,8.79,12.21,12.21,0,0,1-8.09,7.13,26,26,0,0,1-14.74,0A12.41,12.41,0,0,1,47,279.2a22.16,22.16,0,0,1-1.41-6.74c-.16-8.49-.07-17-.06-25.48a7.76,7.76,0,0,1,.12-1h9.74c0,.8.1,1.55.1,2.31,0,6.52-.06,13.05,0,19.58a25.85,25.85,0,0,0,.86,6,5,5,0,0,0,4.87,4,15,15,0,0,0,4.34-.32c2.4-.59,3.44-2.51,3.92-4.76a12.4,12.4,0,0,0,.24-2.72c0-6.6-.06-13.19-.08-19.79a9.73,9.73,0,0,0-2.31-6.62c-3.11-3.52-6.34-6.93-9.52-10.39-3-3.3-6.1-6.58-9.08-9.93a12.34,12.34,0,0,1-3.1-7.87c-.1-2.25-.14-4.49-.15-6.74,0-6-.07-11.93,0-17.89a26,26,0,0,1,.84-6c1.48-5.91,5.43-9.33,11.31-10.54a27.44,27.44,0,0,1,10.87.05,12.26,12.26,0,0,1,10.28,9.85,26,26,0,0,1,.85,5.8c.1,7.15,0,14.31,0,21.47C79.77,211.84,79.71,212.25,79.67,212.82Z" transform="translate(-45.01 -124.24)"/><path class="cls-2" d="M215.22,212.77h-9.46v-2.33c0-6,0-11.93,0-17.9a17.23,17.23,0,0,0-.62-4.34,5.39,5.39,0,0,0-1.54-2.44c-3.44-3-10-1.18-11.34,3.15a16.57,16.57,0,0,0-.54,4.77q-.06,25.17,0,50.33c0,8.35,0,16.71,0,25.06a16.31,16.31,0,0,0,.54,4.35,5.73,5.73,0,0,0,5.07,4.4c.35.05.69.15,1,.18,3.94.35,6.5-1.55,7.2-5.44a19.65,19.65,0,0,0,.21-3.35q0-10.43,0-20.85V246h9.47c.05.52.13.92.13,1.33,0,8.21.07,16.42-.15,24.63a27.61,27.61,0,0,1-1.49,7.59,11.79,11.79,0,0,1-9.1,8.19,24.32,24.32,0,0,1-12.7-.32c-5.94-1.77-9.07-6.07-10.2-12a29,29,0,0,1-.52-5.43q0-38.75,0-77.49a26.41,26.41,0,0,1,1.19-8.08,14,14,0,0,1,10.68-10,23.57,23.57,0,0,1,10.63-.22,13.12,13.12,0,0,1,10.08,8.63,26.49,26.49,0,0,1,1.59,9.28c0,6.53,0,13,0,19.58A8.94,8.94,0,0,1,215.22,212.77Z" transform="translate(-45.01 -124.24)"/><path class="cls-2" d="M396.79,234v53.09H386.48V175.14c.56,0,1.1-.13,1.64-.13,5.55,0,11.09-.07,16.63,0a29.91,29.91,0,0,1,6,.78c6.05,1.36,9.81,5.19,11.31,11.17a27.88,27.88,0,0,1,.9,6.21q.12,11.9-.07,23.79a23.26,23.26,0,0,1-.93,5.58c-1.76,6.61-6.36,10-12.92,10.94a71.75,71.75,0,0,1-7.34.44C400.2,234,398.66,234,396.79,234Zm.18-48.32v38.18c3.22-.12,6.29-.08,9.33-.39a6.29,6.29,0,0,0,5.8-5.27,17.46,17.46,0,0,0,.45-3.74q.07-9.76,0-19.55a17,17,0,0,0-.56-4.14,6.2,6.2,0,0,0-5.28-4.79C403.52,185.37,400.31,185.71,397,185.64Z" transform="translate(-45.01 -124.24)"/><path class="cls-2" d="M102.66,234v53.09H92.39V175.16c.54,0,1.08-.15,1.61-.15,5.62,0,11.24-.13,16.85.06a29.61,29.61,0,0,1,7.63,1.3,13.42,13.42,0,0,1,9,8.81,25.66,25.66,0,0,1,1.49,8.45c0,7.29.09,14.6,0,21.89a31.16,31.16,0,0,1-1,6.85c-1.67,6.74-6.32,10.2-13,11.14a73,73,0,0,1-7.55.44C105.94,234,104.48,234,102.66,234Zm.17-10.31c2.9,0,5.7.19,8.46-.05,4.35-.37,6.57-2.76,7.1-7.19a18.51,18.51,0,0,0,.14-2.1c0-6.44,0-12.89,0-19.34a17.58,17.58,0,0,0-.57-4.14,6.11,6.11,0,0,0-4.59-4.73c-3.44-.85-6.93-.34-10.51-.49Z" transform="translate(-45.01 -124.24)"/><path class="cls-2" d="M349.76,234v53H339.43V175.15a13.73,13.73,0,0,1,1.41-.14c5.68,0,11.37-.09,17.05,0a28.62,28.62,0,0,1,6.63,1,13.84,13.84,0,0,1,10.33,10.34,28.85,28.85,0,0,1,1,7c.13,7.43.1,14.87,0,22.31a27.11,27.11,0,0,1-.75,6c-1.7,7-6,10.84-13.11,11.78-2.63.35-5.31.34-8,.44C352.74,234,351.41,234,349.76,234Zm.11-10.25c3.06-.05,6.05.26,9-.19,3.89-.59,6.23-2.76,6.39-6.66.3-7.27.25-14.57.31-21.86a17,17,0,0,0-.31-2.92c-.53-3.09-2.05-5.4-5.29-6.07s-6.67-.31-10.13-.37Z" transform="translate(-45.01 -124.24)"/><path class="cls-2" d="M227.38,175.06h29.54c0,1.75.05,3.47.06,5.19s0,3.35,0,5.13c-2.2.5-4.3.18-6.36.24s-4.22,0-6.32,0h-6.42v39h13.3c0,1.89,0,3.61,0,5.33s0,3.34,0,5.27H237.85v41.44h19.27c.51,1.64.61,7.5.22,10.27h-30Z" transform="translate(-45.01 -124.24)"/><path class="cls-1" d="M304.84,330.15a33.84,33.84,0,0,1-4.23-3.74c-1.36-1.22-2.66-2.5-4-3.74l-4.51-4.19c-.27,4.06,0,7.66-.19,11.37h-4.76c0-7.3,0-14.55,0-21.84,1.23-.09,1.66.63,2.19,1.12,3,2.76,6,5.54,8.94,8.31.56.52,1.14,1,2.08,1.85.28-3.86,0-7.33.2-10.94h4.37C305.49,310,305.49,328.31,304.84,330.15Z" transform="translate(-45.01 -124.24)"/><path class="cls-1" d="M231.61,147.44a26.14,26.14,0,0,1-4.47-3.81c-1.36-1.21-2.66-2.49-4-3.74l-4.47-4.18c-.31,4,0,7.66-.24,11.34h-4.59V125c2,.87,3.09,2.44,4.48,3.64s2.67,2.48,4,3.72l4.1,3.77.46-.18V125.48h4.71Z" transform="translate(-45.01 -124.24)"/><path class="cls-1" d="M329.61,311.51l-2.81,3.16c-.76-.46-1.4-.86-2.05-1.24-4.2-2.43-8.3-.53-9.12,4.25a8,8,0,0,0,.86,5.29,5.46,5.46,0,0,0,6.45,2.67c1.7-.5,1.81-.69,1.42-2.86l-3.52-.21a6.38,6.38,0,0,1-.18-4.21h8.8c0,2.75.06,5.39,0,8a2.67,2.67,0,0,1-1.09,1.65,11.28,11.28,0,0,1-11.53,1.42c-3.93-1.55-5.7-4.84-6.1-8.85a15.14,15.14,0,0,1,.34-4.79,9.47,9.47,0,0,1,7.24-7.64A11,11,0,0,1,329.61,311.51Z" transform="translate(-45.01 -124.24)"/><path class="cls-1" d="M183.12,308.29h4.59v8.59h8.41c0-2.81.06-5.64.09-8.57h4.38c.45,1.45.61,18,.18,21.51h-4.56v-8.17h-8.32l-.18,8.19h-4.59Z" transform="translate(-45.01 -124.24)"/><path class="cls-1" d="M279.63,317v4.52h-7.72v3.87c3.27.44,6.57-.09,9.95.34V330c-4.9.05-9.71,0-14.45,0-.62-1.74-.67-19.78-.09-21.71a7.26,7.26,0,0,1,1-.13h13.26c.78,1.42.44,2.79.3,4.45h-9.93V317Z" transform="translate(-45.01 -124.24)"/><path class="cls-1" d="M349.92,308.19v4.43H340V317h7.67v4.54H340v4l9.95.1v4c-1.36.54-11.12.72-14.54.27-.45-1.44-.6-18.28-.16-21.58C340.06,308.07,344.91,308.23,349.92,308.19Z" transform="translate(-45.01 -124.24)"/><path class="cls-1" d="M260.2,145.32l2.18-4a46,46,0,0,0,4.76,1.45,8.39,8.39,0,0,0,3.07-.14,1.57,1.57,0,0,0,1.42-1.59,2.69,2.69,0,0,0-1.07-1.66,13.6,13.6,0,0,0-2.49-1.09c-1.36-.55-2.77-1-4.07-1.66-2.5-1.26-3.39-3.43-3.07-6.13a5.85,5.85,0,0,1,4.33-5.14,12.15,12.15,0,0,1,7,.2c1.26.33,2.47.86,4,1.4-.64,1.5-1.16,2.75-1.72,4.07-1.76-.47-3.35-1-5-1.3a5.67,5.67,0,0,0-2.46,0,1.9,1.9,0,0,0-1.25,1.17,1.93,1.93,0,0,0,.76,1.53,13.31,13.31,0,0,0,2.63,1.27c1.35.57,2.76,1,4.07,1.69a5.61,5.61,0,0,1,3.47,5.51,6.19,6.19,0,0,1-3.76,5.63,11.09,11.09,0,0,1-8,.49C263.52,146.66,262.05,146,260.2,145.32Z" transform="translate(-45.01 -124.24)"/><path class="cls-1" d="M178.72,312.13l-3.1,2.9c-2.1-1.44-4-3.06-6.58-2.62a5.3,5.3,0,0,0-3.41,1.9,8.06,8.06,0,0,0,.12,9.57c2.18,2.48,5.28,2.34,10.12-.62l2.65,3.15a11.22,11.22,0,0,1-10.38,3.81c-5.9-.88-9.67-6.06-9-12.18a14.67,14.67,0,0,1,.29-1.86c1-4.22,3.4-7.14,7.84-8.09S175.51,308.46,178.72,312.13Z" transform="translate(-45.01 -124.24)"/><path class="cls-1" d="M257,147.15h-5.22L250,143h-6.53l-1.83,4.12h-5.1a10.16,10.16,0,0,1,.38-1.41q4.27-9.48,8.59-19c.17-.38.29-.89.6-1.07a1.5,1.5,0,0,1,1.21,0c.26.11.36.57.5.89q4.41,9.66,8.79,19.33C256.71,146.21,256.81,146.53,257,147.15ZM248.41,139c-.61-1.49-1.07-2.6-1.53-3.71h-.45c-.44,1.18-.87,2.35-1.37,3.71Z" transform="translate(-45.01 -124.24)"/><path class="cls-1" d="M230.85,308.26h4.52a36,36,0,0,1,.16,5.59c0,1.89,0,3.79,0,5.68v5.73c2.66.72,5.3-.11,7.89.56v4.09H230.85Z" transform="translate(-45.01 -124.24)"/><path class="cls-1" d="M253.64,325.58h7.88v4.31H249.17c-.45-1.63-.5-19.36,0-21.54h4.52Z" transform="translate(-45.01 -124.24)"/><path class="cls-3" d="M167.59,341.33a.71.71,0,0,1,.72-.72h3.53a.73.73,0,0,1,.72.72v7.92l6.69-8.34a.89.89,0,0,1,.57-.3h3.79a.69.69,0,0,1,.55,1.11l-7,8.83,7.68,10a.7.7,0,0,1-.57,1.11h-4.16a.82.82,0,0,1-.54-.21l-7-9.46v9a.73.73,0,0,1-.72.72h-3.53a.71.71,0,0,1-.72-.72Z" transform="translate(-45.01 -124.24)"/><path class="cls-3" d="M187.56,341.18a.59.59,0,0,1,.57-.57h3.7a.57.57,0,0,1,.58.57v12.2a3.68,3.68,0,0,0,3.7,3.79,3.71,3.71,0,0,0,3.77-3.79v-12.2a.57.57,0,0,1,.57-.57h3.7a.59.59,0,0,1,.58.57v12.44a8.59,8.59,0,0,1-17.17,0Z" transform="translate(-45.01 -124.24)"/><path class="cls-3" d="M208.37,358.83l1.41-2.5a.79.79,0,0,1,1-.18,9,9,0,0,0,4.27,1.65,1.88,1.88,0,0,0,2.08-1.8c0-1.27-1-2.23-3.1-3-2.59-1-5.84-3-5.84-6.66,0-3,2.32-6,7-6a11.19,11.19,0,0,1,6.44,2.26.77.77,0,0,1,.18,1l-1.53,2.32c-.22.33-.76.6-1,.39s-2.47-1.81-4.31-1.81A1.74,1.74,0,0,0,213,346c0,1.11.9,1.95,3.28,2.92s6.08,2.77,6.08,6.87c0,3.1-2.68,6.23-7.1,6.23-3.92,0-6.09-1.62-6.78-2.32C208.22,359.37,208.13,359.25,208.37,358.83Z" transform="translate(-45.01 -124.24)"/><path class="cls-3" d="M226.08,341.18a.59.59,0,0,1,.57-.57h3.58a.58.58,0,0,1,.58.57v7.59h8.61v-7.59a.57.57,0,0,1,.57-.57h3.59a.59.59,0,0,1,.57.57v19.94a.59.59,0,0,1-.57.57H240a.57.57,0,0,1-.57-.57V353.2h-8.61v7.92a.58.58,0,0,1-.58.57h-3.58a.59.59,0,0,1-.57-.57Z" transform="translate(-45.01 -124.24)"/><path class="cls-3" d="M249.33,341.18a.59.59,0,0,1,.57-.57h3.61a.6.6,0,0,1,.58.57v19.94a.6.6,0,0,1-.58.57H249.9a.59.59,0,0,1-.57-.57Z" transform="translate(-45.01 -124.24)"/><path class="cls-3" d="M261.34,340.79a.58.58,0,0,1,.54-.49h.49a.65.65,0,0,1,.51.31l7,13h.06l7-13a.65.65,0,0,1,.51-.31h.48a.58.58,0,0,1,.54.49L281.86,361a.56.56,0,0,1-.58.66h-3.55a.61.61,0,0,1-.57-.48l-1.36-9.31h-.06l-5.06,9.76a.7.7,0,0,1-.51.33h-.54a.68.68,0,0,1-.52-.33L264,351.9H264l-1.32,9.31a.58.58,0,0,1-.57.48h-3.56a.55.55,0,0,1-.57-.66Z" transform="translate(-45.01 -124.24)"/><path class="cls-3" d="M295,340.3a10.85,10.85,0,1,1-10.81,10.88A10.83,10.83,0,0,1,295,340.3Zm0,16.87a6,6,0,1,0-6-6A6,6,0,0,0,295,357.17Z" transform="translate(-45.01 -124.24)"/><path class="cls-3" d="M312.18,345h-4.31a.57.57,0,0,1-.57-.57v-3.28a.57.57,0,0,1,.57-.57h13.38a.57.57,0,0,1,.57.57v3.28a.57.57,0,0,1-.57.57h-4.31v16.09a.59.59,0,0,1-.57.57h-3.62a.59.59,0,0,1-.57-.57Z" transform="translate(-45.01 -124.24)"/><path class="cls-3" d="M334.11,340.3a10.85,10.85,0,1,1-10.82,10.88A10.83,10.83,0,0,1,334.11,340.3Zm0,16.87a6,6,0,1,0-6-6A6,6,0,0,0,334.11,357.17Z" transform="translate(-45.01 -124.24)"/></svg>