<svg xmlns="http://www.w3.org/2000/svg" width="509.1091" height="762.15407" viewBox="0 0 509.1091 762.15407"><defs><style>.cls-1{fill:#fff;}.cls-2{fill:#e4010b;}.cls-2,.cls-3,.cls-4{stroke:#fcfcfc;stroke-miterlimit:10;}.cls-4{fill:#4569db;}</style></defs><title>アセット 2</title><g id="レイヤー_2" data-name="レイヤー 2"><g id="layer"><circle class="cls-1" cx="254.55455" cy="254.55455" r="254.55455"/><polygon class="cls-1" points="486.877 359.761 22.233 359.761 254.555 762.154 486.877 359.761"/><path class="cls-2" d="M305.78586,152.79444h-5.94781l-2.02818-4.72862h-7.44046l-2.08513,4.69444h-5.81109a11.57323,11.57323,0,0,1,.433-1.6066q4.87674-10.80175,9.78767-21.64911c.19372-.433.33045-1.01409.68367-1.21919a1.70911,1.70911,0,0,1,1.37869,0c.29627.12534.41018.64947.56972,1.01409q5.02488,11.00685,10.01557,22.02512C305.45542,151.72339,305.56937,152.088,305.78586,152.79444Zm-9.78768-9.28632c-.695-1.69776-1.21919-2.96252-1.74332-4.22729h-.51275c-.50135,1.34452-.9913,2.67766-1.561,4.22729Z"/><path class="cls-2" d="M220.32883,361.3096H214.381l-2.02818-4.72862h-7.44046l-2.08515,4.69444h-5.81109a11.57592,11.57592,0,0,1,.433-1.6066q4.86535-10.80178,9.78767-21.64912c.1937-.433.33043-1.0141.68367-1.21919a1.70916,1.70916,0,0,1,1.37871,0c.29625.12532.4102.64948.56972,1.01411q5.02486,11.00687,10.01555,22.02511C219.9984,360.23853,220.11233,360.60316,220.32883,361.3096Zm-9.78768-9.28633c-.695-1.69773-1.21919-2.96251-1.74332-4.22726h-.51274c-.50135,1.34451-.99129,2.67766-1.561,4.22726Z"/><path class="cls-3" d="M129.676,184.65283H143.6112q8.26086,63.71676,16.5103,127.39932h-11.907c-.92293-6.98469-1.83447-13.9238-2.76879-21.011H126.62234c-.92294,6.97329-1.85727,13.96939-2.803,21.04522H112.23139C118.04245,269.59712,123.84215,227.26739,129.676,184.65283Zm14.3112,95.108-7.5544-62.05319h-.42159c-2.64348,20.635-5.27555,41.27-7.976,62.0646Z"/><path class="cls-3" d="M307.34687,184.66422h13.94658c5.50341,42.48924,10.99546,84.87591,16.51028,127.41074h-11.907c-.92293-6.97329-1.84587-13.96939-2.7802-21.05662H304.29321c-.92293,6.98469-1.84586,13.91239-2.803,21.17054H289.89087C295.7361,269.54015,301.53578,227.13067,307.34687,184.66422Zm6.734,32.656h-.319q-3.99939,31.15194-7.976,62.2925c2.72325.48994,13.9352.3988,15.84943-.15954Q317.8638,248.40376,314.08089,217.3202Z"/><path class="cls-3" d="M494.16732,227.60923H483.17186v-2.65487c0-6.55171.06836-13.1148,0-19.67791a22.65082,22.65082,0,0,0-.94571-5.62877,5.62877,5.62877,0,0,0-5.45786-4.27286,16.11289,16.11289,0,0,0-2.87135,0,6.734,6.734,0,0,0-6.44916,6.01618,10.8811,10.8811,0,0,0-.18231,1.91423c0,7.6.057,15.2.057,22.78854a10.04987,10.04987,0,0,0,2.52953,6.83656q4.40956,5.03625,9.00147,9.9586c3.1562,3.41828,6.42639,6.68843,9.62817,10.03835a22.78854,22.78854,0,0,1,6.18708,15.952c.13673,8.79636.07977,17.59274,0,26.38912a22.99339,22.99339,0,0,1-1.66355,8.18108,14.334,14.334,0,0,1-10.43716,9.34331,30.46843,30.46843,0,0,1-15.41644-.06836,14.81255,14.81255,0,0,1-10.25485-9.27495,26.33177,26.33177,0,0,1-1.82309-9.60537c-.10254-9.03564,0-18.07131,0-27.11836a10.908,10.908,0,0,1,.14813-1.28756h11.212c0,.88875.11395,1.74332.11395,2.59789,0,7.67974-.07977,15.35947.06837,23.02783a25.067,25.067,0,0,0,1.31033,6.75679,5.32111,5.32111,0,0,0,4.9907,3.87405,18.83562,18.83562,0,0,0,4.74-.17091,5.69713,5.69713,0,0,0,4.55771-4.18171,16.51033,16.51033,0,0,0,.68366-4.46657c.07977-6.83656,0-13.76426,0-20.635a15.55324,15.55324,0,0,0-4.20449-11.39427c-3.0081-3.21319-6.07313-6.36939-9.11542-9.58258q-5.32119-5.69716-10.5397-11.48543a14.26569,14.26569,0,0,1-3.70314-9.63956c-.12532-8.94451-.28485-17.90041-.27345-26.85629a30.53689,30.53689,0,0,1,.88875-6.83656c1.618-6.83656,5.90223-11.18918,12.86415-12.67042a30.50228,30.50228,0,0,1,14.01494.34183,13.35409,13.35409,0,0,1,9.62817,8.55709,27.80156,27.80156,0,0,1,1.81168,9.856c.057,7.976,0,15.952,0,23.98494A10.44878,10.44878,0,0,1,494.16732,227.60923Z"/><path class="cls-3" d="M53.59646,227.62063H42.70354V225c0-6.31242.07976-12.63625,0-18.94868a28.63351,28.63351,0,0,0-1.02549-6.5745,5.43505,5.43505,0,0,0-5.09324-4.07915,16.89685,16.89685,0,0,0-2.63208-.07977,6.83657,6.83657,0,0,0-6.99608,5.99338,15.95163,15.95163,0,0,0-.22788,2.86c0,6.72261.06836,13.43383,0,20.15646a13.2515,13.2515,0,0,0,3.41828,9.65095q4.3754,4.76281,8.79638,9.49143c3.06506,3.25876,6.18709,6.47194,9.24075,9.74211a21.501,21.501,0,0,1,5.78829,14.32262c.18232,4.797.14813,9.594.17092,14.391v12.47674a24.646,24.646,0,0,1-2.10794,10.01558,13.91242,13.91242,0,0,1-9.218,8.12412,29.62514,29.62514,0,0,1-16.79515,0,14.14031,14.14031,0,0,1-9.651-9.28636,25.24974,25.24974,0,0,1-1.60659-7.67973c-.18231-9.67372-.07976-19.37026-.06837-29.0326a8.84125,8.84125,0,0,1,.13673-1.13942h11.098c0,.91154.11394,1.76611.11394,2.63207,0,7.42907-.06836,14.86953,0,22.31a29.4546,29.4546,0,0,0,.97991,6.83657,5.69712,5.69712,0,0,0,5.549,4.5577,17.09124,17.09124,0,0,0,4.94511-.36462c2.73463-.67226,3.91963-2.86,4.46655-5.42368a14.1287,14.1287,0,0,0,.27346-3.09925c0-7.52022-.06836-15.029-.09115-22.54927a11.08662,11.08662,0,0,0-2.63208-7.543c-3.54361-4.01079-7.224-7.89622-10.84734-11.83865-3.41828-3.76011-6.95051-7.49743-10.346-11.31452a14.06052,14.06052,0,0,1-3.53222-8.96728c-.11394-2.56371-.15952-5.116-.17092-7.67975,0-6.83656-.07975-13.59337,0-20.38435a29.62581,29.62581,0,0,1,.95712-6.83656c1.68636-6.734,6.18709-10.63086,12.88693-12.00955a31.26553,31.26553,0,0,1,12.38557.057,13.96938,13.96938,0,0,1,11.71331,11.22336,29.62464,29.62464,0,0,1,.96851,6.60868c.11394,8.1469,0,16.3052,0,24.46351A3.72484,3.72484,0,0,1,53.59646,227.62063Z"/><path class="cls-3" d="M208.0458,227.56366h-10.779V204.51305a19.63229,19.63229,0,0,0-.70644-4.94511,6.1416,6.1416,0,0,0-1.75471-2.7802c-3.91963-3.41828-11.39427-1.34452-12.9211,3.58919a18.8804,18.8804,0,0,0-.61528,5.43507q-.06839,28.67937,0,57.34737v28.554a18.58421,18.58421,0,0,0,.61528,4.95651,6.52889,6.52889,0,0,0,5.7769,5.01347c.39881.057.78621.17091,1.13943.20509,4.48934.39881,7.40628-1.7661,8.20387-6.19849a22.38878,22.38878,0,0,0,.23929-3.81708q0-11.88418,0-23.75706v-2.689h10.79037c.057.59251.14814,1.04828.14814,1.51544,0,9.35471.07976,18.70939-.17091,28.06408a31.459,31.459,0,0,1-1.69775,8.64825,13.43389,13.43389,0,0,1-10.3688,9.33191,27.71108,27.71108,0,0,1-14.47072-.36463c-6.7682-2.01677-10.33461-6.91633-11.62215-13.67312a33.04474,33.04474,0,0,1-.59251-6.18708q0-44.1528,0-88.2942a30.09233,30.09233,0,0,1,1.35592-9.20657,15.952,15.952,0,0,1,12.16908-11.39427,26.85633,26.85633,0,0,1,12.11211-.25067,14.94926,14.94926,0,0,1,11.48543,9.83326,30.18376,30.18376,0,0,1,1.81168,10.57388v22.31A10.18627,10.18627,0,0,1,208.0458,227.56366Z"/><path class="cls-3" d="M414.93159,251.75369v60.49218H403.1841V184.687c.63808,0,1.25338-.14813,1.86868-.14813,6.3238,0,12.63624-.07977,18.94867,0a34.08011,34.08011,0,0,1,6.83657.88875c6.89352,1.54962,11.17777,5.91363,12.88691,12.7274a31.76894,31.76894,0,0,1,1.02548,7.07585q.13677,13.55919-.07977,27.107a26.5028,26.5028,0,0,1-1.05966,6.358c-2.0054,7.53161-7.24673,11.39427-14.72141,12.46533a81.75392,81.75392,0,0,1-8.36339.50135C418.817,251.75369,417.06231,251.75369,414.93159,251.75369Zm.20509-55.05713v43.50332c3.66895-.13672,7.167-.09115,10.63084-.44437a7.167,7.167,0,0,0,6.60866-6.00479,19.89287,19.89287,0,0,0,.51276-4.26146q.0798-11.12082,0-22.27581a19.37035,19.37035,0,0,0-.63808-4.71722,7.06446,7.06446,0,0,0-6.01617-5.45785c-3.63478-.695-7.29233-.30762-11.06383-.38739Z"/><path class="cls-3" d="M79.79189,251.75369v60.49218H68.09V184.7098c.6153,0,1.23059-.1709,1.83448-.1709,6.40359,0,12.80716-.14813,19.19935.06836a33.73854,33.73854,0,0,1,8.69382,1.48126,15.29112,15.29112,0,0,1,10.25485,10.03835,29.23826,29.23826,0,0,1,1.69775,9.62815c0,8.30642.10254,16.63565,0,24.94206a35.50547,35.50547,0,0,1-1.13943,7.80508c-1.90284,7.67975-7.20118,11.62216-14.81255,12.69322a83.17513,83.17513,0,0,1-8.60268.50135C83.52921,251.75369,81.86565,251.75369,79.79189,251.75369Zm.19371-11.74749c3.30434,0,6.49473.21649,9.63955-.057,4.9565-.42158,7.486-3.14481,8.08993-8.19248a21.09185,21.09185,0,0,0,.15952-2.3928V207.32742a20.03112,20.03112,0,0,0-.64948-4.71723,6.96189,6.96189,0,0,0-5.23-5.38948c-3.91963-.96852-7.89623-.3874-11.97538-.55833Z"/><path class="cls-3" d="M361.34433,251.75369v60.38963H349.574V184.6984a15.6427,15.6427,0,0,1,1.6066-.15952c6.47194,0,12.95528-.10255,19.42722,0a32.6103,32.6103,0,0,1,7.55441,1.13943A15.76965,15.76965,0,0,1,389.93252,197.46a32.87236,32.87236,0,0,1,1.13943,7.976c.14813,8.46593.11395,16.94327,0,25.42061a30.89063,30.89063,0,0,1-.85457,6.83657c-1.937,7.976-6.83656,12.35138-14.93787,13.42245-2.9967.3988-6.05036.3874-9.11542.50135C364.73981,251.75369,363.22438,251.75369,361.34433,251.75369Zm.12533-11.67913c3.48664-.057,6.89352.29625,10.25484-.21649,4.43239-.67226,7.09864-3.14481,7.281-7.58859.34182-8.28364.28486-16.60146.35322-24.90788a19.37057,19.37057,0,0,0-.35322-3.32712c-.60389-3.52083-2.33581-6.1529-6.02757-6.91633s-7.6-.35322-11.54241-.42159Z"/><path class="cls-3" d="M221.90124,184.59585h33.65869c0,1.994.057,3.95382.06836,5.91363s0,3.81709,0,5.84527c-2.50673.56971-4.89954.20509-7.24676.27347s-4.80838,0-7.20118,0h-7.31512v44.43765h15.15438v12.07794H233.83105v47.21784h21.95674c.58112,1.86868.695,8.54571.25068,11.70191H221.85566Z"/><path class="cls-2" d="M310.16125,361.3096a38.55717,38.55717,0,0,1-4.81978-4.26145c-1.54961-1.3901-3.03088-2.84857-4.55771-4.26145l-5.13883-4.7742c-.30763,4.62607,0,8.728-.21649,12.95528h-5.42369V336.0827c1.40151-.10255,1.89146.71784,2.49535,1.27615,3.41828,3.14483,6.83656,6.31244,10.18648,9.46864.63808.59249,1.299,1.13943,2.37,2.108.319-4.39818,0-8.352.2279-12.46534h4.97929C310.90188,338.35015,310.90188,359.21305,310.16125,361.3096Z"/><path class="cls-2" d="M226.721,153.12488a29.78434,29.78434,0,0,1-5.09324-4.34121c-1.54962-1.37872-3.03088-2.83718-4.5577-4.26146l-5.09325-4.7628c-.35321,4.55771,0,8.728-.27346,12.9211h-5.23V127.55614c2.27885.9913,3.52083,2.7802,5.10463,4.14751s3.04227,2.82577,4.55771,4.23867l4.67165,4.29565.52415-.20509V128.10307h5.36671Z"/><path class="cls-2" d="M338.38485,340.07069l-3.20179,3.6006c-.866-.52413-1.59519-.97989-2.33581-1.41288-4.78561-2.7688-9.45723-.6039-10.39157,4.84256a9.11558,9.11558,0,0,0,.97989,6.02758,6.22126,6.22126,0,0,0,7.34932,3.04229c1.937-.56971,2.06236-.78621,1.618-3.25875l-4.01077-.23927a7.26962,7.26962,0,0,1-.20509-4.797h10.027c0,3.13342.06836,6.14152,0,9.11541a3.04238,3.04238,0,0,1-1.242,1.88,12.85275,12.85275,0,0,1-13.1376,1.618c-4.47794-1.7661-6.49474-5.51482-6.95051-10.08393a17.25129,17.25129,0,0,1,.3874-5.45787,10.79036,10.79036,0,0,1,8.24944-8.70524A12.53378,12.53378,0,0,1,338.38485,340.07069Z"/><path class="cls-2" d="M171.47019,336.40174h5.23v9.78767h9.58259c0-3.20179.06836-6.42638.10254-9.7649h4.9907c.51274,1.65219.69505,20.50969.20509,24.50909h-5.19579v-9.30913h-9.48l-.20509,9.33191h-5.23Z"/><path class="cls-2" d="M281.43631,346.32614v5.1502h-8.79638v4.40957c3.72591.50135,7.486-.10254,11.33731.3874v4.86538c-5.58318.057-11.06382,0-16.46473,0-.70644-1.98259-.76343-22.53787-.10255-24.73695a8.271,8.271,0,0,1,1.13943-.14813H283.6582c.88876,1.618.50136,3.179.34182,5.07046h-11.3145v5.00207Z"/><path class="cls-2" d="M361.52665,336.28779v5.04765H350.22352v4.9907h8.73942v5.173h-8.73942v4.5577l11.33731.11395v4.55771c-1.54961.6153-12.67042.82039-16.56728.30764-.51276-1.64078-.68366-20.82873-.18231-24.58883C350.29188,336.15106,355.81811,336.33337,361.52665,336.28779Z"/><path class="cls-2" d="M259.29725,150.7093l2.48394-4.55771a52.4121,52.4121,0,0,0,5.42368,1.65217,9.55971,9.55971,0,0,0,3.498-.15952,1.78892,1.78892,0,0,0,1.618-1.81168,3.06522,3.06522,0,0,0-1.2192-1.89146,15.496,15.496,0,0,0-2.83716-1.242c-1.54961-.62669-3.1562-1.13942-4.63748-1.89145-2.84857-1.43567-3.86267-3.90823-3.49805-6.98469a6.66565,6.66565,0,0,1,4.93371-5.85666,13.84408,13.84408,0,0,1,7.976.22788c1.43568.376,2.81438.97991,4.5577,1.5952-.72925,1.70913-1.32174,3.13342-1.95981,4.63747-2.0054-.53553-3.81709-1.13943-5.69714-1.48126a6.46074,6.46074,0,0,0-2.803,0,2.16486,2.16486,0,0,0-1.42428,1.33313,2.19908,2.19908,0,0,0,.866,1.74332,15.16591,15.16591,0,0,0,2.9967,1.44708c1.53824.64948,3.14483,1.13943,4.63748,1.92563a6.39219,6.39219,0,0,1,3.95381,6.27824,7.05306,7.05306,0,0,1-4.28425,6.415,12.63622,12.63622,0,0,1-9.11542.55833A55.07639,55.07639,0,0,1,259.29725,150.7093Z"/><path class="cls-2" d="M166.45672,340.77713l-3.53223,3.30433c-2.39281-1.64077-4.55771-3.48664-7.49744-2.98529a6.039,6.039,0,0,0-3.88545,2.16491,9.18376,9.18376,0,0,0,.13673,10.90432c2.48394,2.82579,6.01617,2.66626,11.531-.70644l3.01948,3.58919a12.78437,12.78437,0,0,1-11.82726,4.34121c-6.72261-1.0027-11.01826-6.90492-10.25484-13.87821a16.71689,16.71689,0,0,1,.33042-2.11932c1.13943-4.80838,3.874-8.13552,8.93311-9.218S162.79915,336.59542,166.45672,340.77713Z"/><path class="cls-2" d="M255.65107,152.79444h-5.94781l-2.02818-4.72862h-7.44046l-2.08515,4.69444h-5.81109a11.57742,11.57742,0,0,1,.433-1.6066q4.86536-10.80175,9.78767-21.64911c.1937-.433.33043-1.01409.68367-1.21919a1.70908,1.70908,0,0,1,1.37871,0c.29625.12534.4102.64947.56971,1.01409q5.02488,11.00685,10.01558,22.02512C255.32062,151.72339,255.43457,152.088,255.65107,152.79444Zm-9.78768-9.28632c-.69505-1.69776-1.21919-2.96252-1.74332-4.22729h-.51274c-.50135,1.34452-.99129,2.67766-1.561,4.22729Z"/><path class="cls-2" d="M225.85506,336.36756h5.15021a41.01916,41.01916,0,0,1,.18231,6.36939v13.00087c3.03088.82039,6.039-.12532,8.99008.63807v4.66026h-14.3226Z"/><path class="cls-2" d="M251.82259,356.10241h8.97868v4.91092H246.72935c-.51274-1.85727-.56971-22.05932,0-24.54326h5.15022Z"/><path class="cls-4" d="M153.77489,374.04838a.809.809,0,0,1,.79744-.82039q.01148-.00015.023,0h4.02217a.83179.83179,0,0,1,.82039.82039v9.02428l7.62277-9.50282a1.01409,1.01409,0,0,1,.64948-.34181h4.31842a.78621.78621,0,0,1,.62669,1.26475l-7.976,10.06112L173.43,395.94817a.7976.7976,0,0,1-.64948,1.26475h-4.74a.93433.93433,0,0,1-.61528-.23927l-7.976-10.779v10.25484a.83178.83178,0,0,1-.82039.82039h-4.02218a.809.809,0,0,1-.82038-.79744q-.00017-.01148,0-.02295Z"/><path class="cls-4" d="M176.52925,373.87748a.67224.67224,0,0,1,.64948-.64949h4.21588a.64946.64946,0,0,1,.66076.638l.00011.01151v13.901a4.19309,4.19309,0,0,0,4.06579,4.31663q.075.00225.15008.00181a4.22728,4.22728,0,0,0,4.29608-4.15734q.00131-.08053-.00043-.1611v-13.901a.64949.64949,0,0,1,.64946-.64949h4.2159a.67227.67227,0,0,1,.66087.64949v14.17447a9.78768,9.78768,0,0,1-19.564,0Z"/><path class="cls-4" d="M200.24072,393.98836l1.6066-2.84857a.90014.90014,0,0,1,1.13943-.20509,10.25485,10.25485,0,0,0,4.86535,1.88,2.1421,2.1421,0,0,0,2.35915-1.90046q.00808-.07506.01086-.1505c0-1.44706-1.13942-2.54093-3.53223-3.41828-2.95111-1.13942-6.65425-3.41828-6.65425-7.58859,0-3.41828,2.64348-6.83656,7.976-6.83656a12.7502,12.7502,0,0,1,7.33792,2.57512.87734.87734,0,0,1,.20509,1.13942l-1.74333,2.64348c-.25067.376-.866.68367-1.13942.4444s-2.81439-2.06236-4.91093-2.06236a1.98257,1.98257,0,0,0-2.24135,1.68455l-.00332.02455c0,1.26475,1.02547,2.2219,3.73731,3.32715s6.92772,3.1562,6.92772,7.82785c0,3.53223-3.05365,7.09865-8.08994,7.09865-4.46655,0-6.9391-1.84587-7.72531-2.64348C200.06982,394.60366,199.96727,394.46693,200.24072,393.98836Z"/><path class="cls-4" d="M220.42,373.87748a.67225.67225,0,0,1,.64949-.64949h4.07915a.66086.66086,0,0,1,.66087.64949v8.64824H235.62v-8.64824a.64949.64949,0,0,1,.64947-.64949H240.36a.67225.67225,0,0,1,.64948.64949v22.72017a.67225.67225,0,0,1-.64948.64949h-4.07917a.64948.64948,0,0,1-.64949-.64949h0v-9.02424h-9.81046v9.02428a.66086.66086,0,0,1-.66087.64948h-4.07915a.67224.67224,0,0,1-.64949-.64948Z"/><path class="cls-4" d="M246.91166,373.87748a.67225.67225,0,0,1,.64949-.64949h4.11333a.68369.68369,0,0,1,.66087.64949v22.72017a.68369.68369,0,0,1-.66087.64949h-4.11335a.67224.67224,0,0,1-.64948-.64949Z"/><path class="cls-4" d="M260.59618,373.43312a.66087.66087,0,0,1,.6153-.55831h.55831a.74053.74053,0,0,1,.58111.35322l7.976,14.81255h.06837l7.976-14.81255a.74053.74053,0,0,1,.58112-.35322h.54693a.66087.66087,0,0,1,.6153.55831l3.86261,23.02781a.63816.63816,0,0,1-.66085.752h-4.045a.69506.69506,0,0,1-.64948-.54694l-1.5496-10.60807h-.06837l-5.76549,11.12082a.79759.79759,0,0,1-.58112.376h-.6153a.77474.77474,0,0,1-.59249-.376l-5.82249-11.08663h0L262.123,396.7002a.66089.66089,0,0,1-.64948.54694h-4.05635a.6267.6267,0,0,1-.64949-.752Z"/><path class="cls-4" d="M298.9493,372.87477A12.36279,12.36279,0,1,1,286.63213,385.283l0-.01126a12.34,12.34,0,0,1,12.28285-12.39687Zm0,19.22213a6.83656,6.83656,0,1,0-6.83657-6.83656,6.83654,6.83654,0,0,0,6.83657,6.83656h0Z"/><path class="cls-4" d="M318.52465,378.2301h-4.91093a.64949.64949,0,0,1-.64948-.64949h0v-3.73732a.64948.64948,0,0,1,.64948-.64948h15.24554a.64948.64948,0,0,1,.64948.64948h0v3.73732a.64949.64949,0,0,1-.64948.64949h-4.91093v18.33337a.67225.67225,0,0,1-.64948.64949h-4.12472a.67224.67224,0,0,1-.64948-.64949Z"/><path class="cls-4" d="M343.51227,372.87477a12.34366,12.34366,0,1,1-.04572.00014Zm0,19.22213a6.83656,6.83656,0,1,0-6.83656-6.83656,6.83655,6.83655,0,0,0,6.83656,6.83656h0Z"/></g></g></svg>